<svg width="18" height="18" viewBox="0 0 18 18" fill="none" xmlns="http://www.w3.org/2000/svg">
<mask id="mask0_1599_549" style="mask-type:luminance" maskUnits="userSpaceOnUse" x="0" y="0" width="18" height="18">
<path d="M18 0H0V18H18V0Z" fill="white"/>
</mask>
<g mask="url(#mask0_1599_549)">
<path d="M9 18C13.9706 18 18 13.9706 18 9C18 4.02944 13.9706 0 9 0C4.02944 0 0 4.02944 0 9C0 13.9706 4.02944 18 9 18Z" fill="white"/>
<path d="M9.00098 16.5002C13.1431 16.5002 16.501 13.1423 16.501 9.00024C16.501 4.85811 13.1431 1.50024 9.00098 1.50024C4.85884 1.50024 1.50098 4.85811 1.50098 9.00024C1.50098 13.1423 4.85884 16.5002 9.00098 16.5002Z" stroke="#706D85" stroke-width="1.66667" stroke-linecap="round" stroke-linejoin="round"/>
<path d="M12.001 12.0002C12.001 12.0002 10.876 10.5002 9.00098 10.5002C7.12598 10.5002 6.00098 12.0002 6.00098 12.0002" stroke="#706D85" stroke-width="1.66667" stroke-linecap="round" stroke-linejoin="round"/>
<path d="M6.75 6.75H6.75833" stroke="#706D85" stroke-width="1.66667" stroke-linecap="round" stroke-linejoin="round"/>
<path d="M11.25 6.75H11.2583" stroke="#706D85" stroke-width="1.66667" stroke-linecap="round" stroke-linejoin="round"/>
</g>
</svg>
