<svg width="29" height="24" viewBox="0 0 29 24" fill="none" xmlns="http://www.w3.org/2000/svg">
<path fill-rule="evenodd" clip-rule="evenodd" d="M0.970459 11.8006C0.970459 11.4152 1.12356 11.0456 1.39607 10.773C1.66858 10.5005 2.03819 10.3474 2.42358 10.3474H23.0347L14.9786 2.67493C14.8345 2.54428 14.7182 2.38603 14.6364 2.20958C14.5547 2.03313 14.5091 1.84207 14.5026 1.6477C14.496 1.45334 14.5285 1.25964 14.5982 1.07807C14.6679 0.896504 14.7733 0.730768 14.9082 0.590685C15.0431 0.450602 15.2047 0.339021 15.3835 0.262553C15.5623 0.186086 15.7547 0.146289 15.9491 0.145519C16.1436 0.14475 16.3362 0.183024 16.5157 0.258074C16.6951 0.333124 16.8576 0.443422 16.9936 0.582434L27.6498 10.7543C27.7905 10.8899 27.9023 11.0524 27.9787 11.2321C28.0551 11.4119 28.0945 11.6052 28.0945 11.8006C28.0945 11.9959 28.0551 12.1892 27.9787 12.369C27.9023 12.5487 27.7905 12.7113 27.6498 12.8468L16.9936 23.0187C16.8576 23.1577 16.6951 23.268 16.5157 23.343C16.3362 23.4181 16.1436 23.4564 15.9491 23.4556C15.7547 23.4548 15.5623 23.415 15.3835 23.3386C15.2047 23.2621 15.0431 23.1505 14.9082 23.0104C14.7733 22.8704 14.6679 22.7046 14.5982 22.5231C14.5285 22.3415 14.496 22.1478 14.5026 21.9534C14.5091 21.7591 14.5547 21.568 14.6364 21.3915C14.7182 21.2151 14.8345 21.0568 14.9786 20.9262L23.0347 13.2537H2.42358C2.03819 13.2537 1.66858 13.1006 1.39607 12.8281C1.12356 12.5556 0.970459 12.186 0.970459 11.8006Z" fill="white"/>
</svg>
