<svg xmlns="http://www.w3.org/2000/svg" fill="none" viewBox="0 0 89 76" height="76" width="89">
<path fill="black" d="M85.2356 43.7901C77.4592 50.2317 66.4243 50.4557 57.104 47.6661C51.3506 45.9532 46.024 43.1849 40.8507 40.1836C35.6774 37.1822 30.5655 34.0876 25.6988 30.6199C20.2727 26.7843 15.2758 22.2958 11.5572 16.7778C11.1509 16.1766 10.1142 16.2296 9.59038 16.6199C8.97456 17.15 9.02624 17.9855 9.43246 18.5866C16.3542 28.883 27.5094 35.4844 37.9346 41.6724C48.0333 47.6457 59.1183 52.9318 71.1237 51.9432C76.9098 51.4734 82.5472 49.5032 87.0592 45.7909C88.4454 44.6987 86.6059 42.6206 85.2356 43.7901Z"></path>
<path fill="black" d="M14.8751 38.0068C12.9918 31.4246 12.0667 24.6043 12.1317 17.7003C11.5305 18.1066 10.9294 18.5128 10.2976 18.9656C16.0094 21.4528 21.904 23.459 27.996 24.8603C28.7555 25.0258 29.4965 24.7116 29.7393 23.9361C29.9674 23.2846 29.5746 22.3583 28.8151 22.1928C22.7231 20.7915 16.7979 18.832 11.1167 16.2982C10.2787 15.9474 9.30833 16.7119 9.28271 17.5634C9.21897 24.6686 10.1147 31.7368 12.0925 38.5815C12.2828 39.3078 12.9516 39.8144 13.7245 39.6548C14.4974 39.4951 15.112 38.7638 14.8751 38.0068Z"></path>
</svg>
