<?xml version="1.0" encoding="utf-8"?>
<!-- Generator: Adobe Illustrator 21.1.0, SVG Export Plug-In . SVG Version: 6.00 Build 0)  -->
<svg version="1.1" id="Layer_1" xmlns="http://www.w3.org/2000/svg" xmlns:xlink="http://www.w3.org/1999/xlink" x="0px" y="0px"
	 viewBox="0 0 400 400" style="enable-background:new 0 0 400 400;" xml:space="preserve">
<style type="text/css">
	.st0{fill:#E60A08;}
</style>
<path class="st0" d="M199.758,0C89.697,0,0,89.697,0,199.758C0,310.303,89.697,400,199.758,400C310.303,400,400,310.303,400,199.758
	C400,89.697,310.303,0,199.758,0z M289.161,260.658c8.043,8.044,6.317,16.312,4.572,20.526c-3.366,8.128-11.661,14.029-19.722,14.03
	c0,0-0.002,0-0.002,0c-4.842,0-9.334-2.036-13.351-6.053l-60.923-60.923l-60.378,60.908c-4.118,4.027-8.682,6.068-13.567,6.069
	c-8.014,0-16.249-5.838-19.582-13.883c-1.755-4.236-3.487-12.555,4.631-20.674l60.393-60.923l-60.393-60.393
	c-8.334-8.334-6.605-16.758-4.832-21.038c3.306-7.982,11.503-13.776,19.491-13.776c4.999,0,9.656,2.123,13.844,6.311l60.393,60.393
	l60.971-60.442c4.077-4.155,8.631-6.262,13.537-6.262c7.9,0,16.071,5.806,19.429,13.806c1.799,4.286,3.601,12.711-4.527,21.023
	l-60.908,60.378L289.161,260.658z"/>
</svg>
