<svg width="34" height="35" viewBox="0 0 34 35" fill="none" xmlns="http://www.w3.org/2000/svg">
<path d="M14.5776 5.9674L2.57842 25.9991C2.33103 26.4275 2.20013 26.9132 2.19874 27.408C2.19736 27.9027 2.32554 28.3892 2.57053 28.819C2.81552 29.2488 3.16879 29.607 3.59518 29.8579C4.02157 30.1088 4.50622 30.2436 5.00092 30.2491H28.9993C29.494 30.2436 29.9786 30.1088 30.405 29.8579C30.8314 29.607 31.1847 29.2488 31.4297 28.819C31.6746 28.3892 31.8028 27.9027 31.8014 27.408C31.8001 26.9132 31.6692 26.4275 31.4218 25.9991L19.4226 5.9674C19.17 5.55105 18.8144 5.20682 18.3901 4.96792C17.9658 4.72902 17.487 4.60352 17.0001 4.60352C16.5131 4.60352 16.0344 4.72902 15.6101 4.96792C15.1857 5.20682 14.8301 5.55105 14.5776 5.9674Z" stroke="white" stroke-width="2" stroke-linecap="round" stroke-linejoin="round"/>
<path d="M17 13.25V18.9167" stroke="white" stroke-width="2" stroke-linecap="round" stroke-linejoin="round"/>
<path d="M17 24.584H17.0142" stroke="white" stroke-width="2" stroke-linecap="round" stroke-linejoin="round"/>
</svg>
