<svg width="223" height="25" viewBox="0 0 223 25" fill="none" xmlns="http://www.w3.org/2000/svg">
<g clip-path="url(#clip0_2848_129)">
<path d="M11.5502 2.01661C10.6286 1.4489 9.60306 1.16504 8.47319 1.16504H0V22.0785H3.21063V14.0716H8.47319C9.60306 14.0716 10.6286 13.778 11.5502 13.1902C12.4719 12.6029 13.2103 11.8212 13.765 10.8448C14.3198 9.86918 14.5976 8.78361 14.5976 7.58808C14.5976 6.39255 14.3198 5.30741 13.765 4.33138C13.2098 3.35578 12.4719 2.58348 11.5502 2.01576V2.01661ZM10.9259 9.27674C10.6583 9.78479 10.3063 10.1931 9.87069 10.5017C9.43469 10.8107 8.94906 10.965 8.41381 10.965H3.21063V4.27256H8.41381C8.94906 4.27256 9.43426 4.42217 9.87069 4.72052C10.3063 5.01929 10.6583 5.41823 10.9259 5.91562C11.1935 6.41344 11.3271 6.97178 11.3271 7.58851C11.3271 8.20524 11.1935 8.76912 10.9259 9.27674Z" fill="white"/>
<path d="M28.7042 8.21609C28.06 7.53927 27.3017 7.00607 26.4301 6.61779C25.5576 6.22951 24.6165 6.03516 23.6058 6.03516C22.456 6.03516 21.3906 6.23974 20.4096 6.64763C19.4286 7.05594 18.5859 7.63346 17.8827 8.38061C17.179 9.12734 16.6289 10.0087 16.2328 11.0248C15.8358 12.0405 15.6382 13.1661 15.6382 14.4009C15.6382 15.9544 15.9898 17.329 16.6938 18.5236C17.397 19.7188 18.3683 20.6598 19.6076 21.3473C20.846 22.0344 22.2681 22.3779 23.8739 22.3779C24.6068 22.3779 25.3553 22.2731 26.1183 22.0642C26.8813 21.8549 27.6049 21.5711 28.2886 21.2126C28.9723 20.8542 29.5521 20.4356 30.0279 19.9579L28.482 17.7769C27.7088 18.4542 26.9903 18.9226 26.3262 19.1813C25.662 19.4404 24.9439 19.5696 24.1708 19.5696C23.0807 19.5696 22.1197 19.3505 21.2871 18.9124C20.4546 18.4746 19.8103 17.8515 19.3544 17.0451C19.01 16.4356 18.7966 15.743 18.7127 14.9686H30.6522L30.6819 13.6542C30.7014 12.5592 30.5382 11.5478 30.1912 10.6216C29.8443 9.69548 29.3485 8.89377 28.7047 8.21652L28.7042 8.21609ZM20.9003 9.48578C21.6332 9.0779 22.5353 8.87331 23.6058 8.87331C24.2793 8.87331 24.9036 9.02292 25.4788 9.32169C26.0534 9.62047 26.5293 10.0288 26.9059 10.5466C27.2821 11.0649 27.5006 11.6518 27.5599 12.3095V12.5187H18.8319C18.9256 12.0657 19.0579 11.6501 19.2356 11.2789C19.6118 10.4921 20.167 9.89452 20.9007 9.48621L20.9003 9.48578Z" fill="white"/>
<path d="M42.6037 14.7295C42.227 14.3314 41.7164 13.9781 41.0726 13.6691C40.4283 13.3605 39.6106 13.0766 38.6199 12.8175C37.9459 12.6581 37.3907 12.4889 36.9547 12.3099C36.5187 12.1305 36.1917 11.9617 35.9737 11.8018C35.7752 11.6424 35.6213 11.4485 35.5131 11.2192C35.4037 10.9903 35.3392 10.7461 35.3197 10.4874C35.3197 10.1886 35.3795 9.91968 35.4983 9.68058C35.617 9.44147 35.7905 9.24285 36.0187 9.08302C36.2464 8.92362 36.5289 8.80428 36.8661 8.72458C37.2028 8.6453 37.5795 8.60524 37.996 8.60524C38.3722 8.60524 38.7887 8.68537 39.2446 8.84434C39.7005 9.00417 40.1514 9.22794 40.5971 9.51648C41.0433 9.80546 41.4543 10.1392 41.8309 10.5172L43.5851 8.5754C43.169 8.05755 42.6533 7.6096 42.0392 7.2307C41.4246 6.85265 40.7558 6.56367 40.0326 6.36421C39.3086 6.16559 38.5804 6.06543 37.8475 6.06543C37.0743 6.06543 36.3461 6.17497 35.6624 6.39404C34.9787 6.61354 34.3841 6.92681 33.8785 7.33512C33.373 7.74343 32.9764 8.22165 32.6893 8.76933C32.4017 9.31744 32.2584 9.91968 32.2584 10.5769C32.2584 11.1148 32.3275 11.6075 32.4666 12.0559C32.6049 12.5042 32.8233 12.9177 33.1206 13.2957C33.5168 13.7739 34.0817 14.2023 34.8154 14.5803C35.5488 14.9592 36.4899 15.2976 37.6397 15.596C38.3132 15.7754 38.8633 15.9502 39.29 16.119C39.7158 16.2882 40.028 16.4429 40.2264 16.5818C40.6026 16.9006 40.7914 17.3188 40.7914 17.8366C40.7914 18.1354 40.7316 18.4094 40.6128 18.6583C40.4941 18.9077 40.3202 19.1216 40.0924 19.3006C39.8642 19.4797 39.5966 19.6143 39.2895 19.7038C38.9821 19.7934 38.6504 19.8381 38.2933 19.8381C37.4013 19.8381 36.6036 19.6842 35.8999 19.3752C35.1963 19.0667 34.5474 18.5637 33.9528 17.8664L31.8716 19.6591C32.565 20.5554 33.437 21.2327 34.488 21.6909C35.5382 22.1486 36.7176 22.3779 38.0256 22.3779C39.0762 22.3779 40.0275 22.1784 40.8796 21.7804C41.7317 21.3823 42.4107 20.8295 42.9162 20.1224C43.4218 19.4157 43.6746 18.6136 43.6746 17.7173C43.6746 17.1001 43.5949 16.5422 43.4367 16.0444C43.2776 15.547 43.0007 15.1084 42.6045 14.7299L42.6037 14.7295Z" fill="white"/>
<path d="M50.8679 2.39062H47.8057V6.39405H44.5649V9.38181H47.8057V22.0791H50.8679V9.38181H54.495V6.39405H50.8679V2.39062Z" fill="white"/>
<path d="M79.2598 4.06287C78.4073 3.1269 77.3818 2.41001 76.1828 1.91177C74.9833 1.41437 73.6406 1.16504 72.154 1.16504H64.0078V22.0785H72.154C73.6406 22.0785 74.9884 21.8296 76.1976 21.3318C77.4064 20.8344 78.4319 20.1218 79.2747 19.1956C80.117 18.2694 80.7659 17.1638 81.2218 15.8792C81.6778 14.5946 81.9055 13.1753 81.9055 11.6218C81.9055 10.0682 81.6773 8.65404 81.2218 7.37924C80.7659 6.10486 80.1115 4.99969 79.2598 4.06287ZM78.1897 14.699C77.8924 15.6154 77.4615 16.3868 76.8966 17.0147C76.3316 17.642 75.6378 18.1249 74.8154 18.4634C73.993 18.8022 73.0561 18.9714 72.006 18.9714H67.2193V4.27214H72.006C73.0561 4.27214 73.9875 4.44134 74.8005 4.78018C75.6132 5.11902 76.3066 5.60661 76.8817 6.24423C77.456 6.88185 77.8924 7.65372 78.1897 8.55985C78.487 9.46641 78.6359 10.4868 78.6359 11.6222C78.6359 12.7576 78.487 13.7831 78.1897 14.699Z" fill="white"/>
<path d="M96.3991 8.21609C95.7548 7.53927 94.9965 7.00607 94.1249 6.61779C93.2525 6.22951 92.3113 6.03516 91.3006 6.03516C90.1508 6.03516 89.0854 6.23974 88.1044 6.64763C87.1234 7.05594 86.2807 7.63346 85.5775 8.38061C84.8739 9.12734 84.3238 10.0087 83.9276 11.0248C83.5307 12.0405 83.333 13.1661 83.333 14.4009C83.333 15.9544 83.6846 17.329 84.3887 18.5236C85.0919 19.7188 86.0631 20.6598 87.3024 21.3473C88.5409 22.0344 89.9629 22.3779 91.5687 22.3779C92.3016 22.3779 93.0502 22.2731 93.8132 22.0642C94.5762 21.8549 95.2997 21.5711 95.9834 21.2126C96.6671 20.8542 97.2469 20.4356 97.7228 19.9579L96.1768 17.7769C95.4036 18.4542 94.6852 18.9226 94.021 19.1813C93.3568 19.4404 92.6388 19.5696 91.8656 19.5696C90.7756 19.5696 89.8145 19.3505 88.9819 18.9124C88.1494 18.4746 87.5051 17.8515 87.0492 17.0451C86.7048 16.4356 86.4915 15.743 86.4075 14.9686H98.3471L98.3768 13.6542C98.3963 12.5592 98.233 11.5478 97.886 10.6216C97.5391 9.69548 97.0433 8.89377 96.3995 8.21652L96.3991 8.21609ZM88.5951 9.48578C89.328 9.0779 90.2302 8.87331 91.3006 8.87331C91.9742 8.87331 92.5985 9.02292 93.1736 9.32169C93.7483 9.62047 94.2241 10.0288 94.6008 10.5466C94.977 11.0649 95.1954 11.6518 95.2548 12.3095V12.5187H86.5267C86.6204 12.0657 86.7527 11.6501 86.9304 11.2789C87.3066 10.4921 87.8618 9.89452 88.5956 9.48621L88.5951 9.48578Z" fill="white"/>
<path d="M105.303 4.63124C105.303 4.25319 105.373 3.92927 105.511 3.66032C105.65 3.39138 105.863 3.19234 106.15 3.06277C106.438 2.9332 106.79 2.86842 107.206 2.86842C107.483 2.86842 107.775 2.94301 108.083 3.09218C108.39 3.24178 108.672 3.43571 108.93 3.67482L109.971 1.31444C109.634 0.915934 109.188 0.597126 108.633 0.358446C108.078 0.11934 107.483 0 106.849 0C105.937 0 105.134 0.199468 104.441 0.597552C103.747 0.996488 103.202 1.54375 102.806 2.24061C102.409 2.93789 102.211 3.73449 102.211 4.63081V6.66258H99.7139V9.50073H102.211V22.0787H105.303V9.50073H108.99V6.66258H105.303V4.63124Z" fill="white"/>
<path d="M122.532 8.21609C121.888 7.53927 121.13 7.00607 120.258 6.61779C119.386 6.22951 118.445 6.03516 117.434 6.03516C116.284 6.03516 115.219 6.23974 114.238 6.64763C113.257 7.05594 112.414 7.63346 111.711 8.38061C111.007 9.12734 110.457 10.0087 110.061 11.0248C109.664 12.0405 109.466 13.1661 109.466 14.4009C109.466 15.9544 109.818 17.329 110.522 18.5236C111.225 19.7188 112.196 20.6598 113.436 21.3473C114.674 22.0344 116.096 22.3779 117.702 22.3779C118.435 22.3779 119.183 22.2731 119.946 22.0642C120.709 21.8549 121.433 21.5711 122.117 21.2126C122.8 20.8542 123.38 20.4356 123.856 19.9579L122.31 17.7769C121.537 18.4542 120.818 18.9226 120.154 19.1813C119.49 19.4404 118.772 19.5696 117.999 19.5696C116.909 19.5696 115.948 19.3505 115.115 18.9124C114.283 18.4746 113.638 17.8515 113.182 17.0451C112.838 16.4356 112.625 15.743 112.541 14.9686H124.48L124.51 13.6542C124.53 12.5592 124.366 11.5478 124.019 10.6216C123.672 9.69548 123.177 8.89377 122.533 8.21652L122.532 8.21609ZM114.728 9.48578C115.461 9.0779 116.363 8.87331 117.434 8.87331C118.107 8.87331 118.732 9.02292 119.307 9.32169C119.882 9.62047 120.357 10.0288 120.734 10.5466C121.11 11.0649 121.329 11.6518 121.388 12.3095V12.5187H112.66C112.754 12.0657 112.886 11.6501 113.064 11.2789C113.44 10.4921 113.995 9.89452 114.729 9.48621L114.728 9.48578Z" fill="white"/>
<path d="M137.798 6.7674C137.005 6.29985 136.015 6.06543 134.825 6.06543C133.993 6.06543 133.18 6.24998 132.387 6.6178C131.594 6.9869 130.911 7.46469 130.336 8.05201C130.091 8.3022 129.888 8.56432 129.712 8.83412V6.39404H126.649V22.0791H129.712V12.5784C129.712 12.0606 129.816 11.5777 130.024 11.1293C130.232 10.6813 130.519 10.2879 130.886 9.94909C131.252 9.61068 131.683 9.34685 132.179 9.15761C132.674 8.9688 133.22 8.87375 133.814 8.87375C134.547 8.83412 135.162 8.94834 135.657 9.21728C136.152 9.48622 136.52 9.91457 136.758 10.5019C136.996 11.0896 137.114 11.8317 137.114 12.728V22.0791H140.176V12.5187C140.176 11.0649 139.978 9.85959 139.582 8.90359C139.185 7.94759 138.591 7.23539 137.798 6.7674H137.798Z" fill="white"/>
<path d="M152.931 14.7295C152.554 14.3314 152.044 13.9781 151.4 13.6691C150.755 13.3605 149.938 13.0766 148.947 12.8175C148.273 12.6581 147.718 12.4889 147.282 12.3099C146.846 12.1305 146.519 11.9617 146.301 11.8018C146.102 11.6424 145.948 11.4485 145.84 11.2192C145.731 10.9903 145.666 10.7461 145.647 10.4874C145.647 10.1886 145.707 9.91968 145.825 9.68058C145.944 9.44147 146.118 9.24285 146.346 9.08302C146.574 8.92362 146.856 8.80428 147.193 8.72458C147.53 8.6453 147.907 8.60524 148.323 8.60524C148.699 8.60524 149.116 8.68537 149.572 8.84434C150.028 9.00417 150.479 9.22794 150.924 9.51648C151.37 9.80546 151.781 10.1392 152.158 10.5172L153.912 8.5754C153.496 8.05755 152.98 7.6096 152.366 7.2307C151.752 6.85265 151.083 6.56367 150.36 6.36421C149.636 6.16559 148.908 6.06543 148.175 6.06543C147.401 6.06543 146.673 6.17497 145.99 6.39404C145.306 6.61354 144.711 6.92681 144.206 7.33512C143.7 7.74343 143.304 8.22165 143.016 8.76933C142.729 9.31744 142.586 9.91968 142.586 10.5769C142.586 11.1148 142.655 11.6075 142.794 12.0559C142.932 12.5042 143.15 12.9177 143.448 13.2957C143.844 13.7739 144.409 14.2023 145.143 14.5803C145.876 14.9592 146.817 15.2976 147.967 15.596C148.64 15.7754 149.19 15.9502 149.617 16.119C150.043 16.2882 150.355 16.4429 150.554 16.5818C150.93 16.9006 151.119 17.3188 151.119 17.8366C151.119 18.1354 151.059 18.4094 150.94 18.6583C150.821 18.9077 150.647 19.1216 150.42 19.3006C150.191 19.4797 149.924 19.6143 149.617 19.7038C149.309 19.7934 148.978 19.8381 148.62 19.8381C147.728 19.8381 146.931 19.6842 146.227 19.3752C145.523 19.0667 144.875 18.5637 144.28 17.8664L142.199 19.6591C142.892 20.5554 143.764 21.2327 144.815 21.6909C145.865 22.1486 147.045 22.3779 148.353 22.3779C149.403 22.3779 150.355 22.1784 151.207 21.7804C152.059 21.3823 152.738 20.8295 153.243 20.1224C153.749 19.4157 154.002 18.6136 154.002 17.7173C154.002 17.1001 153.922 16.5422 153.764 16.0444C153.605 15.547 153.328 15.1084 152.932 14.7299L152.931 14.7295Z" fill="white"/>
<path d="M168.316 8.21609C167.672 7.53927 166.913 7.00607 166.042 6.61779C165.169 6.22951 164.228 6.03516 163.218 6.03516C162.068 6.03516 161.002 6.23974 160.021 6.64763C159.04 7.05594 158.198 7.63346 157.494 8.38061C156.791 9.12734 156.241 10.0087 155.845 11.0248C155.448 12.0405 155.25 13.1661 155.25 14.4009C155.25 15.9544 155.602 17.329 156.306 18.5236C157.009 19.7188 157.98 20.6598 159.219 21.3473C160.458 22.0344 161.88 22.3779 163.486 22.3779C164.219 22.3779 164.967 22.2731 165.73 22.0642C166.493 21.8549 167.217 21.5711 167.9 21.2126C168.584 20.8542 169.164 20.4356 169.64 19.9579L168.094 17.7769C167.321 18.4542 166.602 18.9226 165.938 19.1813C165.274 19.4404 164.556 19.5696 163.783 19.5696C162.693 19.5696 161.731 19.3505 160.899 18.9124C160.066 18.4746 159.422 17.8515 158.966 17.0451C158.622 16.4356 158.408 15.743 158.324 14.9686H170.264L170.294 13.6542C170.313 12.5592 170.15 11.5478 169.803 10.6216C169.456 9.69548 168.96 8.89377 168.316 8.21652L168.316 8.21609ZM160.512 9.48578C161.245 9.0779 162.147 8.87331 163.218 8.87331C163.891 8.87331 164.515 9.02292 165.091 9.32169C165.665 9.62047 166.141 10.0288 166.518 10.5466C166.894 11.0649 167.112 11.6518 167.172 12.3095V12.5187H158.444C158.537 12.0657 158.67 11.6501 158.847 11.2789C159.224 10.4921 159.779 9.89452 160.513 9.48621L160.512 9.48578Z" fill="white"/>
<path d="M190.404 7.6709H185.842V18.1238H187.863V14.749L190.404 14.7341C192.455 14.7192 194 13.1959 194 11.2247C194 9.29861 192.44 7.6709 190.404 7.6709ZM190.27 12.9419L187.863 12.9568V9.49254L190.27 9.47762C191.37 9.47762 192.068 10.2094 192.068 11.165C192.068 12.1206 191.37 12.9419 190.27 12.9419Z" fill="white"/>
<path d="M203.435 11.2088C203.435 9.31212 201.875 7.66992 199.839 7.66992H195.278V18.1228H197.299V14.5686H199.275L201.43 18.1224H203.569L201.266 14.3146C202.544 13.8517 203.435 12.6123 203.435 11.2088ZM199.795 12.8216H197.299V9.47664H199.84C200.805 9.47664 201.504 10.208 201.504 11.1338C201.504 12.1043 200.747 12.8216 199.795 12.8216Z" fill="white"/>
<path d="M209.661 7.56445C206.734 7.56445 204.372 9.96873 204.372 12.9105C204.372 15.8522 206.734 18.2411 209.662 18.2411C212.589 18.2411 214.981 15.8518 214.966 12.91C214.951 9.95338 212.589 7.56445 209.661 7.56445ZM209.661 16.3598C207.76 16.3598 206.362 14.8071 206.362 12.9105C206.362 10.9993 207.774 9.43127 209.661 9.43084C211.563 9.43084 212.975 10.9985 212.975 12.91C212.975 14.8212 211.563 16.3598 209.661 16.3598Z" fill="white"/>
<path d="M210.962 0.806641H189.221C182.584 0.806641 177.184 6.2332 177.184 12.9034C177.184 19.5737 182.584 25.0002 189.221 25.0002H210.962C217.6 25.0002 223 19.5737 223 12.9034C223 6.2332 217.6 0.806641 210.962 0.806641ZM210.962 23.7216H189.221C183.285 23.7216 178.456 18.8687 178.456 12.9034C178.456 6.93815 183.285 2.08528 189.221 2.08528H210.962C216.898 2.08528 221.727 6.93815 221.727 12.9034C221.727 18.8687 216.898 23.7216 210.962 23.7216Z" fill="white"/>
</g>
<defs>
<clipPath id="clip0_2848_129">
<rect width="223" height="25" fill="white"/>
</clipPath>
</defs>
</svg>
