<svg width="17" height="18" viewBox="0 0 17 18" fill="none" xmlns="http://www.w3.org/2000/svg">
<path d="M4.25 1.5L2.125 4.5V15C2.125 15.3978 2.27426 15.7794 2.53993 16.0607C2.80561 16.342 3.16594 16.5 3.54167 16.5H13.4583C13.8341 16.5 14.1944 16.342 14.4601 16.0607C14.7257 15.7794 14.875 15.3978 14.875 15V4.5L12.75 1.5H4.25Z" stroke="white" stroke-width="2" stroke-linecap="round" stroke-linejoin="round"/>
<path d="M2.125 4.5H14.875" stroke="white" stroke-width="2" stroke-linecap="round" stroke-linejoin="round"/>
<path d="M11.3332 7.5C11.3332 8.29565 11.0347 9.05871 10.5033 9.62132C9.97195 10.1839 9.25128 10.5 8.49984 10.5C7.74839 10.5 7.02772 10.1839 6.49637 9.62132C5.96501 9.05871 5.6665 8.29565 5.6665 7.5" stroke="white" stroke-width="2" stroke-linecap="round" stroke-linejoin="round"/>
</svg>
