<svg xmlns="http://www.w3.org/2000/svg" fill="none" viewBox="0 0 89 73" height="73" width="89">
<path fill="black" d="M2.8315 32.6505C10.2529 25.8031 21.2602 24.9903 30.7161 27.2784C36.5527 28.6819 42.0195 31.1618 47.3456 33.8828C52.6718 36.6037 57.9416 39.4211 62.9864 42.624C68.6096 46.1646 73.8389 50.3799 77.8467 55.6916C78.2845 56.2702 79.3169 56.162 79.8192 55.7443C80.4058 55.182 80.3096 54.3505 79.8719 53.7719C72.4104 43.8596 60.9187 37.8632 50.1781 32.2405C39.775 26.8147 28.4236 22.1278 16.4881 23.7559C10.7353 24.5338 5.21112 26.8021 0.903726 30.7499C-0.422233 31.9146 1.52561 33.8915 2.8315 32.6505Z"></path>
<path fill="black" d="M73.3853 34.6678C75.6172 41.1401 76.9051 47.9013 77.2087 54.7989C77.7873 54.3612 78.3658 53.9234 78.9726 53.4375C73.1361 51.2588 67.1429 49.5701 60.9848 48.4959C60.2176 48.3712 59.4944 48.7246 59.2933 49.5119C59.1003 50.1747 59.542 51.0786 60.3093 51.2034C66.4674 52.2775 72.4887 53.918 78.297 56.1449C79.1526 56.4504 80.0808 55.6352 80.0609 54.7835C79.7453 47.6851 78.4736 40.6748 76.1332 33.9454C75.9044 33.2303 75.2096 32.7601 74.4462 32.9608C73.6829 33.1615 73.1083 33.9246 73.3853 34.6678Z"></path>
</svg>
