<svg xmlns="http://www.w3.org/2000/svg" fill="none" viewBox="0 0 90 68" height="68" width="90">
<path fill="black" d="M86.1637 33.9391C79.3892 26.451 68.4999 24.65 58.8764 26.0771C52.937 26.9491 47.2691 28.9266 41.7196 31.1567C36.17 33.3869 30.6678 35.7181 25.355 38.4536C19.4358 41.4733 13.848 45.2004 9.37802 50.1296C8.88995 50.6664 7.87146 50.4656 7.40887 50.0044C6.87525 49.3916 7.04597 48.572 7.53403 48.0352C15.858 38.8354 27.8431 33.8984 39.0465 29.266C49.8961 24.7993 61.6235 21.154 73.3638 23.8504C79.0232 25.1434 84.3206 27.9001 88.2549 32.2198C89.4705 33.4992 87.3525 35.2926 86.1637 33.9391Z"></path>
<path fill="black" d="M15.7137 29.6105C12.9079 35.8554 11.0162 42.4731 10.0926 49.3153C9.55577 48.8273 9.01897 48.3392 8.45849 47.8006C14.4674 46.1564 20.5884 45.0144 26.8182 44.4993C27.5936 44.4442 28.282 44.8613 28.4113 45.6635C28.5438 46.341 28.0225 47.2015 27.2471 47.2566C21.0174 47.7717 14.8727 48.8631 8.88743 50.5578C8.00781 50.785 7.15684 49.8895 7.25335 49.0431C8.20705 42.0019 10.105 35.1347 13.042 28.6435C13.3343 27.9519 14.0687 27.5462 14.8108 27.8148C15.553 28.0834 16.0565 28.8952 15.7137 29.6105Z"></path>
</svg>
