<svg xmlns="http://www.w3.org/2000/svg" fill="none" viewBox="0 0 96 16" height="16" width="96">
<g clip-path="url(#clip0_54_18)">
<path fill="#F4BB4C" d="M15.4829 5.63406L10.6864 4.90408L8.54222 0.352135C8.48365 0.227506 8.38731 0.126615 8.26829 0.0652895C7.96981 -0.0890138 7.6071 0.0395723 7.45786 0.352135L5.3137 4.90408L0.517213 5.63406C0.384974 5.65384 0.26407 5.71912 0.171503 5.81803C0.0595945 5.93848 -0.0020722 6.10053 5.31712e-05 6.26856C0.00217854 6.4366 0.0679221 6.59688 0.182838 6.71418L3.65316 10.2572L2.83328 15.2602C2.81405 15.3766 2.82635 15.4963 2.86878 15.6057C2.91121 15.7151 2.98207 15.8099 3.07333 15.8793C3.16459 15.9488 3.27259 15.99 3.38509 15.9984C3.4976 16.0068 3.6101 15.982 3.70983 15.9269L8.00004 13.5648L12.2902 15.9269C12.4074 15.9922 12.5434 16.0139 12.6737 15.9902C13.0024 15.9308 13.2235 15.6044 13.1668 15.2602L12.3469 10.2572L15.8172 6.71418C15.9117 6.61724 15.974 6.49064 15.9929 6.35216C16.0439 6.00597 15.8135 5.68549 15.4829 5.63406Z"></path>
</g>
<g clip-path="url(#clip1_54_18)">
<path fill="#F4BB4C" d="M35.4829 5.63424L30.6864 4.90427L28.5422 0.352318C28.4837 0.227689 28.3873 0.126798 28.2683 0.0654726C27.9698 -0.0888307 27.6071 0.0397554 27.4579 0.352318L25.3137 4.90427L20.5172 5.63424C20.385 5.65402 20.2641 5.7193 20.1715 5.81822C20.0596 5.93866 19.9979 6.10071 20.0001 6.26875C20.0022 6.43678 20.0679 6.59706 20.1828 6.71436L23.6532 10.2574L22.8333 15.2604C22.8141 15.3768 22.8264 15.4965 22.8688 15.6059C22.9112 15.7153 22.9821 15.8101 23.0733 15.8795C23.1646 15.9489 23.2726 15.9902 23.3851 15.9986C23.4976 16.007 23.6101 15.9822 23.7098 15.9271L28 13.565L32.2902 15.9271C32.4074 15.9923 32.5434 16.0141 32.6737 15.9904C33.0024 15.931 33.2235 15.6046 33.1668 15.2604L32.3469 10.2574L35.8172 6.71436C35.9117 6.61743 35.974 6.49082 35.9929 6.35234C36.0439 6.00615 35.8135 5.68567 35.4829 5.63424Z"></path>
</g>
<g clip-path="url(#clip2_54_18)">
<path fill="#F4BB4C" d="M55.4829 5.63424L50.6864 4.90427L48.5422 0.352318C48.4837 0.227689 48.3873 0.126798 48.2683 0.0654726C47.9698 -0.0888307 47.6071 0.0397554 47.4579 0.352318L45.3137 4.90427L40.5172 5.63424C40.385 5.65402 40.2641 5.7193 40.1715 5.81822C40.0596 5.93866 39.9979 6.10071 40.0001 6.26875C40.0022 6.43678 40.0679 6.59706 40.1828 6.71436L43.6532 10.2574L42.8333 15.2604C42.8141 15.3768 42.8264 15.4965 42.8688 15.6059C42.9112 15.7153 42.9821 15.8101 43.0733 15.8795C43.1646 15.9489 43.2726 15.9902 43.3851 15.9986C43.4976 16.007 43.6101 15.9822 43.7098 15.9271L48 13.565L52.2902 15.9271C52.4074 15.9923 52.5434 16.0141 52.6737 15.9904C53.0024 15.931 53.2235 15.6046 53.1668 15.2604L52.3469 10.2574L55.8172 6.71436C55.9117 6.61743 55.974 6.49082 55.9929 6.35234C56.0439 6.00615 55.8135 5.68567 55.4829 5.63424Z"></path>
</g>
<g clip-path="url(#clip3_54_18)">
<path fill="#F4BB4C" d="M75.4829 5.63406L70.6864 4.90408L68.5422 0.352135C68.4837 0.227506 68.3873 0.126615 68.2683 0.0652895C67.9698 -0.0890138 67.6071 0.0395723 67.4579 0.352135L65.3137 4.90408L60.5172 5.63406C60.385 5.65384 60.2641 5.71912 60.1715 5.81803C60.0596 5.93848 59.9979 6.10053 60.0001 6.26856C60.0022 6.4366 60.0679 6.59688 60.1828 6.71418L63.6532 10.2572L62.8333 15.2602C62.8141 15.3766 62.8264 15.4963 62.8688 15.6057C62.9112 15.7151 62.9821 15.8099 63.0733 15.8793C63.1646 15.9488 63.2726 15.99 63.3851 15.9984C63.4976 16.0068 63.6101 15.982 63.7098 15.9269L68 13.5648L72.2902 15.9269C72.4074 15.9922 72.5434 16.0139 72.6737 15.9902C73.0024 15.9308 73.2235 15.6044 73.1668 15.2602L72.3469 10.2572L75.8172 6.71418C75.9117 6.61724 75.974 6.49064 75.9929 6.35216C76.0439 6.00597 75.8135 5.68549 75.4829 5.63406Z"></path>
</g>
<g clip-path="url(#clip4_54_18)">
<path fill="#F4BB4C" d="M95.4829 5.63406L90.6864 4.90408L88.5422 0.352135C88.4837 0.227506 88.3873 0.126615 88.2683 0.0652895C87.9698 -0.0890138 87.6071 0.0395723 87.4579 0.352135L85.3137 4.90408L80.5172 5.63406C80.385 5.65384 80.2641 5.71912 80.1715 5.81803C80.0596 5.93848 79.9979 6.10053 80.0001 6.26856C80.0022 6.4366 80.0679 6.59688 80.1828 6.71418L83.6532 10.2572L82.8333 15.2602C82.8141 15.3766 82.8264 15.4963 82.8688 15.6057C82.9112 15.7151 82.9821 15.8099 83.0733 15.8793C83.1646 15.9488 83.2726 15.99 83.3851 15.9984C83.4976 16.0068 83.6101 15.982 83.7098 15.9269L88 13.5648L92.2902 15.9269C92.4074 15.9922 92.5434 16.0139 92.6737 15.9902C93.0024 15.9308 93.2235 15.6044 93.1668 15.2602L92.3469 10.2572L95.8172 6.71418C95.9117 6.61724 95.974 6.49064 95.9929 6.35216C96.0439 6.00597 95.8135 5.68549 95.4829 5.63406Z"></path>
</g>
<defs>
<clipPath id="clip0_54_18">
<rect fill="white" height="16" width="16"></rect>
</clipPath>
<clipPath id="clip1_54_18">
<rect transform="translate(20)" fill="white" height="16" width="16"></rect>
</clipPath>
<clipPath id="clip2_54_18">
<rect transform="translate(40)" fill="white" height="16" width="16"></rect>
</clipPath>
<clipPath id="clip3_54_18">
<rect transform="translate(60)" fill="white" height="16" width="16"></rect>
</clipPath>
<clipPath id="clip4_54_18">
<rect transform="translate(80)" fill="white" height="16" width="16"></rect>
</clipPath>
</defs>
</svg>
