<svg xmlns="http://www.w3.org/2000/svg" fill="none" viewBox="0 0 89 70" height="70" width="89">
<path fill="black" d="M2.85799 35.5567C9.79001 42.8993 20.7151 44.4685 30.3062 42.8373C36.2257 41.8393 41.8503 39.7419 47.3512 37.3944C52.8522 35.0469 58.3036 32.5993 63.5571 29.7515C69.4108 26.6068 74.9182 22.7618 79.2825 17.7389C79.759 17.1918 80.7816 17.3709 81.2538 17.8222C81.8003 18.4235 81.6471 19.2465 81.1705 19.7935C73.0438 29.1682 61.1663 34.3586 50.0639 39.228C39.3116 43.9241 27.6642 47.8177 15.8693 45.3712C10.1838 44.1988 4.82901 41.5552 0.803851 37.32C-0.438714 36.0668 1.64071 34.2287 2.85799 35.5567Z"></path>
<path fill="black" d="M73.3837 38.4078C76.0563 32.1047 77.8069 25.4483 78.585 18.588C79.1321 19.0645 79.6791 19.5411 80.2509 20.0677C74.2783 21.8391 68.1829 23.1109 61.9655 23.7582C61.1915 23.8297 60.4943 23.4274 60.348 22.6281C60.2011 21.9536 60.7041 21.0822 61.4781 21.0106C67.6955 20.3634 73.8156 19.1416 79.7635 17.3202C80.6381 17.0743 81.5079 17.9516 81.4294 18.7998C80.6255 25.8597 78.8738 32.7657 76.0754 39.3178C75.7978 40.0155 75.0722 40.4367 74.3246 40.1839C73.5769 39.9311 73.0562 39.1302 73.3837 38.4078Z"></path>
</svg>
