<svg width="13" height="13" viewBox="0 0 13 13" fill="none" xmlns="http://www.w3.org/2000/svg">
<path d="M11.9018 3.97559V5.79097C11.9018 5.90222 11.8576 6.0089 11.779 6.08756C11.7003 6.16622 11.5936 6.21041 11.4824 6.21041H10.8721V12.1612C10.8721 12.2724 10.8279 12.3791 10.7492 12.4578C10.6706 12.5364 10.5639 12.5806 10.4527 12.5806H1.86884C1.7576 12.5806 1.65091 12.5364 1.57225 12.4578C1.49359 12.3791 1.4494 12.2724 1.4494 12.1612V6.21041H0.839117C0.727874 6.21041 0.621189 6.16622 0.542528 6.08756C0.463868 6.0089 0.419678 5.90222 0.419678 5.79097V3.97559C0.419678 3.86435 0.463868 3.75766 0.542528 3.679C0.621189 3.60034 0.727874 3.55615 0.839117 3.55615H11.4824C11.5936 3.55615 11.7003 3.60034 11.779 3.679C11.8576 3.75766 11.9018 3.86435 11.9018 3.97559Z" fill="#FE4F60"/>
<path d="M11.4824 3.55615H0.839117C0.727874 3.55615 0.621189 3.60034 0.542528 3.679C0.463868 3.75766 0.419678 3.86435 0.419678 3.97559V5.79097C0.419678 5.90222 0.463868 6.0089 0.542528 6.08756C0.621189 6.16622 0.727874 6.21041 0.839117 6.21041H4.53542V7.2632C4.5355 7.33428 4.55363 7.40416 4.58813 7.46631C4.62262 7.52845 4.67234 7.58081 4.73261 7.61846C4.79289 7.65612 4.86174 7.67785 4.93272 7.6816C5.00369 7.68535 5.07445 7.67101 5.13836 7.63991L5.97724 7.22965C6.03469 7.2015 6.09782 7.18687 6.16179 7.18687C6.22577 7.18687 6.2889 7.2015 6.34635 7.22965L7.18313 7.63991C7.24704 7.67101 7.3178 7.68535 7.38877 7.6816C7.45975 7.67785 7.5286 7.65612 7.58888 7.61846C7.64915 7.58081 7.69887 7.52845 7.73336 7.46631C7.76786 7.40416 7.78599 7.33428 7.78607 7.2632V6.21041H11.4824C11.5936 6.21041 11.7003 6.16622 11.779 6.08756C11.8576 6.0089 11.9018 5.90222 11.9018 5.79097V3.97559C11.9018 3.86435 11.8576 3.75766 11.779 3.679C11.7003 3.60034 11.5936 3.55615 11.4824 3.55615Z" fill="#FF6D7A"/>
<path d="M11.9018 3.97559V4.3426H1.62556C1.51432 4.3426 1.40764 4.38679 1.32898 4.46545C1.25032 4.54411 1.20613 4.6508 1.20613 4.76204V6.21041H0.839117C0.727874 6.21041 0.621189 6.16622 0.542528 6.08756C0.463868 6.0089 0.419678 5.90222 0.419678 5.79097V3.97559C0.419678 3.86435 0.463868 3.75766 0.542528 3.679C0.621189 3.60034 0.727874 3.55615 0.839117 3.55615H11.4824C11.5936 3.55615 11.7003 3.60034 11.779 3.679C11.8576 3.75766 11.9018 3.86435 11.9018 3.97559Z" fill="#FE929F"/>
<path d="M1.44873 6.21033H10.8788V7.02299H1.44873V6.21033Z" fill="#E84857"/>
<path d="M7.78565 3.55615V7.2632C7.78565 7.55367 7.48654 7.79091 7.15649 7.62681V12.5806H5.16416V7.62602C4.83123 7.79065 4.53369 7.55131 4.53369 7.26242V3.55615H7.78565Z" fill="#D6F4FC"/>
<path d="M7.78581 7.2632C7.78573 7.33428 7.76759 7.40416 7.7331 7.46631C7.69861 7.52845 7.64889 7.58081 7.58861 7.61846C7.52834 7.65612 7.45948 7.67785 7.38851 7.6816C7.31754 7.68535 7.24677 7.67101 7.18286 7.63991L6.34399 7.22965C6.28654 7.2015 6.22341 7.18687 6.15943 7.18687C6.09546 7.18687 6.03233 7.2015 5.97488 7.22965L5.1381 7.63991C5.07419 7.67101 5.00343 7.68535 4.93245 7.6816C4.86148 7.67785 4.79262 7.65612 4.73235 7.61846C4.67207 7.58081 4.62236 7.52845 4.58786 7.46631C4.55337 7.40416 4.53523 7.33428 4.53516 7.2632V3.55615H7.78581V7.2632Z" fill="#E8F8FC"/>
<path d="M4.53467 3.55615H7.78637V4.3426H4.53467V3.55615Z" fill="#F1FAFC"/>
<path d="M11.9016 3.13664H9.8728C10.1247 2.77471 10.2472 2.33842 10.2205 1.89826C10.1939 1.45811 10.0195 1.03981 9.72574 0.71097C8.57831 -0.568581 6.82007 0.0278089 6.16051 1.35271C5.4742 -0.0259317 3.68634 -0.505927 2.6519 0.64884C1.91998 1.4657 1.97267 2.45452 2.44821 3.13664H0.419439C0.308197 3.13664 0.201511 3.18083 0.122851 3.25949C0.0441907 3.33815 0 3.44483 0 3.55608V6.21034C0 6.32158 0.0441907 6.42826 0.122851 6.50692C0.201511 6.58558 0.308197 6.62977 0.419439 6.62977H1.02972V12.5806C1.02972 12.6918 1.07391 12.7985 1.15257 12.8771C1.23123 12.9558 1.33792 13 1.44916 13H10.8719C10.9831 13 11.0898 12.9558 11.1684 12.8771C11.2471 12.7985 11.2913 12.6918 11.2913 12.5806V6.62977H11.9016C12.0128 6.62977 12.1195 6.58558 12.1982 6.50692C12.2768 6.42826 12.321 6.32158 12.321 6.21034V3.55608C12.321 3.44483 12.2768 3.33815 12.1982 3.25949C12.1195 3.18083 12.0128 3.13664 11.9016 3.13664ZM6.74929 2.2608C6.90239 1.06802 8.28916 0.365719 9.04415 1.20879L9.09972 1.27092C9.74461 1.99052 9.2308 3.13664 8.26635 3.13664H6.63709L6.74929 2.2608ZM7.36639 7.26313C6.25724 6.71995 6.28975 6.71995 6.16051 6.71995C6.03127 6.71995 6.06377 6.71995 4.95462 7.26313V3.97551H7.36639V7.26313ZM3.22103 1.27092L3.27687 1.20879C4.035 0.362311 5.41915 1.0709 5.57198 2.2608L5.68418 3.13664H4.0544C3.08812 3.13664 2.57745 1.98973 3.22103 1.27092ZM0.838877 3.97551H4.11574V5.7909H0.838877V3.97551ZM1.8686 6.62977H4.11574V7.93554C4.11574 8.22154 4.40961 8.46429 4.74621 8.2994V12.1611H1.8686V6.62977ZM10.4524 12.1611H7.57611V9.27748C7.57611 9.16624 7.53192 9.05955 7.45326 8.98089C7.3746 8.90223 7.26792 8.85804 7.15667 8.85804C7.04543 8.85804 6.93875 8.90223 6.86009 8.98089C6.78142 9.05955 6.73723 9.16624 6.73723 9.27748V12.1611H5.58378V7.88809L6.16051 7.60602C7.7334 8.37674 7.65345 8.35472 7.78583 8.35472C7.89707 8.35472 8.00376 8.31053 8.08242 8.23187C8.16108 8.15321 8.20527 8.04652 8.20527 7.93528V6.62977H10.4519L10.4524 12.1611ZM11.4821 5.7909H8.20527V3.97551H11.4821V5.7909Z" fill="black"/>
</svg>
